<svg xmlns="http://www.w3.org/2000/svg" viewBox="0 0 1536 1152" preserveAspectRatio="xMidYMid slice">
<defs>
  <linearGradient id="sea" x1="0" y1="0" x2="0" y2="1">
    <stop offset="0" stop-color="#7adde0"/><stop offset=".55" stop-color="#3fbfc9"/><stop offset="1" stop-color="#1d9fb0"/>
  </linearGradient>
  <linearGradient id="pool" x1="0" y1="0" x2="1" y2="1">
    <stop offset="0" stop-color="#8ef0ea"/><stop offset="1" stop-color="#2cc4cf"/>
  </linearGradient>
  <linearGradient id="sand" x1="0" y1="0" x2="0" y2="1">
    <stop offset="0" stop-color="#f7e5c2"/><stop offset="1" stop-color="#f0d9ae"/>
  </linearGradient>
  <linearGradient id="deck" x1="0" y1="0" x2="0" y2="1">
    <stop offset="0" stop-color="#fdfaf3"/><stop offset="1" stop-color="#f3ece0"/>
  </linearGradient>
  <radialGradient id="palm" cx=".5" cy=".45" r=".6">
    <stop offset="0" stop-color="#4fae62"/><stop offset="1" stop-color="#2e7d44"/>
  </radialGradient>
  <filter id="soft" x="-40%" y="-40%" width="180%" height="180%">
    <feDropShadow dx="0" dy="7" stdDeviation="9" flood-color="#3c2f1a" flood-opacity=".18"/>
  </filter>
  <filter id="softsm" x="-60%" y="-60%" width="220%" height="220%">
    <feDropShadow dx="0" dy="3" stdDeviation="4" flood-color="#3c2f1a" flood-opacity=".22"/>
  </filter>
</defs><rect width="1536" height="1152" fill="#8fbf74"/><rect x="0" y="150" width="1536" height="1152" fill="url(#deck)"/><rect x="0" y="722" width="1536" height="430" fill="url(#sand)"/><path d="M0 942 Q 307.20000000000005 914 691.2 940 T 1536 934 L 1536 1152 L 0 1152 Z" fill="url(#sea)"/><path d="M0 946 Q 307.20000000000005 918 691.2 944 T 1536 938" fill="none" stroke="#ffffff" stroke-opacity="0.85" stroke-width="7" stroke-linecap="round"/><path d="M0 968 Q 307.20000000000005 940 691.2 966 T 1536 960" fill="none" stroke="#ffffff" stroke-opacity="0.5" stroke-width="5" stroke-linecap="round"/><path d="M0 994 Q 307.20000000000005 966 691.2 992 T 1536 986" fill="none" stroke="#ffffff" stroke-opacity="0.3" stroke-width="4" stroke-linecap="round"/><line x1="120" y1="160" x2="120" y2="732" stroke="#e2d7c2" stroke-width="2" opacity=".55"/><line x1="268" y1="160" x2="268" y2="732" stroke="#e2d7c2" stroke-width="2" opacity=".55"/><line x1="416" y1="160" x2="416" y2="732" stroke="#e2d7c2" stroke-width="2" opacity=".55"/><line x1="564" y1="160" x2="564" y2="732" stroke="#e2d7c2" stroke-width="2" opacity=".55"/><line x1="712" y1="160" x2="712" y2="732" stroke="#e2d7c2" stroke-width="2" opacity=".55"/><line x1="860" y1="160" x2="860" y2="732" stroke="#e2d7c2" stroke-width="2" opacity=".55"/><line x1="1008" y1="160" x2="1008" y2="732" stroke="#e2d7c2" stroke-width="2" opacity=".55"/><line x1="1156" y1="160" x2="1156" y2="732" stroke="#e2d7c2" stroke-width="2" opacity=".55"/><line x1="1304" y1="160" x2="1304" y2="732" stroke="#e2d7c2" stroke-width="2" opacity=".55"/><line x1="1452" y1="160" x2="1452" y2="732" stroke="#e2d7c2" stroke-width="2" opacity=".55"/><path d="M 560 380 C 500 330 560 250 680 258 C 800 264 940 240 1030 280 C 1130 324 1150 430 1080 490 C 1030 534 950 520 880 540 C 780 568 660 560 600 500 C 552 452 596 420 560 380 Z" fill="#d9f6f4" transform="translate(6,10)" opacity=".8"/><path d="M 560 380 C 500 330 560 250 680 258 C 800 264 940 240 1030 280 C 1130 324 1150 430 1080 490 C 1030 534 950 520 880 540 C 780 568 660 560 600 500 C 552 452 596 420 560 380 Z" fill="none" stroke="#e8dfc9" stroke-width="34" opacity=".8"/><path d="M 560 380 C 500 330 560 250 680 258 C 800 264 940 240 1030 280 C 1130 324 1150 430 1080 490 C 1030 534 950 520 880 540 C 780 568 660 560 600 500 C 552 452 596 420 560 380 Z" fill="url(#pool)" stroke="#ffffff" stroke-width="11" filter="url(#soft)"/><path d="M640 360 q60 -26 150 -14 M700 430 q80 -20 180 -6 M660 480 q70 18 160 8" stroke="#ffffff" stroke-opacity=".5" stroke-width="6" fill="none" stroke-linecap="round"/><g transform="translate(150,320)" filter="url(#soft)"><rect x="-60" y="-48" width="120" height="96" rx="14" fill="#d9b077"/><rect x="-60" y="-48" width="120" height="96" rx="14" fill="none" stroke="#c39a5f" stroke-width="4"/><line x1="-46" y1="-44" x2="-56" y2="44" stroke="#c39a5f" stroke-width="3" opacity=".7"/><line x1="-30" y1="-44" x2="-40" y2="44" stroke="#c39a5f" stroke-width="3" opacity=".7"/><line x1="-14" y1="-44" x2="-24" y2="44" stroke="#c39a5f" stroke-width="3" opacity=".7"/><line x1="2" y1="-44" x2="-8" y2="44" stroke="#c39a5f" stroke-width="3" opacity=".7"/><line x1="18" y1="-44" x2="8" y2="44" stroke="#c39a5f" stroke-width="3" opacity=".7"/><line x1="34" y1="-44" x2="24" y2="44" stroke="#c39a5f" stroke-width="3" opacity=".7"/><line x1="50" y1="-44" x2="40" y2="44" stroke="#c39a5f" stroke-width="3" opacity=".7"/><rect x="-38" y="-26" width="76" height="52" rx="8" fill="#fdf8ec"/></g><g transform="translate(150,470)" filter="url(#soft)"><rect x="-60" y="-48" width="120" height="96" rx="14" fill="#d9b077"/><rect x="-60" y="-48" width="120" height="96" rx="14" fill="none" stroke="#c39a5f" stroke-width="4"/><line x1="-46" y1="-44" x2="-56" y2="44" stroke="#c39a5f" stroke-width="3" opacity=".7"/><line x1="-30" y1="-44" x2="-40" y2="44" stroke="#c39a5f" stroke-width="3" opacity=".7"/><line x1="-14" y1="-44" x2="-24" y2="44" stroke="#c39a5f" stroke-width="3" opacity=".7"/><line x1="2" y1="-44" x2="-8" y2="44" stroke="#c39a5f" stroke-width="3" opacity=".7"/><line x1="18" y1="-44" x2="8" y2="44" stroke="#c39a5f" stroke-width="3" opacity=".7"/><line x1="34" y1="-44" x2="24" y2="44" stroke="#c39a5f" stroke-width="3" opacity=".7"/><line x1="50" y1="-44" x2="40" y2="44" stroke="#c39a5f" stroke-width="3" opacity=".7"/><rect x="-38" y="-26" width="76" height="52" rx="8" fill="#fdf8ec"/></g><g transform="translate(150,620)" filter="url(#soft)"><rect x="-60" y="-48" width="120" height="96" rx="14" fill="#d9b077"/><rect x="-60" y="-48" width="120" height="96" rx="14" fill="none" stroke="#c39a5f" stroke-width="4"/><line x1="-46" y1="-44" x2="-56" y2="44" stroke="#c39a5f" stroke-width="3" opacity=".7"/><line x1="-30" y1="-44" x2="-40" y2="44" stroke="#c39a5f" stroke-width="3" opacity=".7"/><line x1="-14" y1="-44" x2="-24" y2="44" stroke="#c39a5f" stroke-width="3" opacity=".7"/><line x1="2" y1="-44" x2="-8" y2="44" stroke="#c39a5f" stroke-width="3" opacity=".7"/><line x1="18" y1="-44" x2="8" y2="44" stroke="#c39a5f" stroke-width="3" opacity=".7"/><line x1="34" y1="-44" x2="24" y2="44" stroke="#c39a5f" stroke-width="3" opacity=".7"/><line x1="50" y1="-44" x2="40" y2="44" stroke="#c39a5f" stroke-width="3" opacity=".7"/><rect x="-38" y="-26" width="76" height="52" rx="8" fill="#fdf8ec"/></g><g transform="translate(590,250) rotate(-8)" filter="url(#softsm)"><rect x="-35.0" y="-27.0" width="70.0" height="54.0" rx="10" fill="#ffffff"/><rect x="-30.0" y="-22.0" width="60.0" height="44.0" rx="7" fill="#efe6d1"/><rect x="-30.0" y="-22.0" width="60.0" height="15.84" rx="6" fill="#d9c9a4"/><rect x="-25.0" y="13.0" width="50.0" height="6" rx="3" fill="#ffffff" opacity=".8"/></g><g transform="translate(700,212) rotate(0)" filter="url(#softsm)"><rect x="-35.0" y="-27.0" width="70.0" height="54.0" rx="10" fill="#ffffff"/><rect x="-30.0" y="-22.0" width="60.0" height="44.0" rx="7" fill="#efe6d1"/><rect x="-30.0" y="-22.0" width="60.0" height="15.84" rx="6" fill="#d9c9a4"/><rect x="-25.0" y="13.0" width="50.0" height="6" rx="3" fill="#ffffff" opacity=".8"/></g><g transform="translate(820,200) rotate(4)" filter="url(#softsm)"><rect x="-35.0" y="-27.0" width="70.0" height="54.0" rx="10" fill="#ffffff"/><rect x="-30.0" y="-22.0" width="60.0" height="44.0" rx="7" fill="#efe6d1"/><rect x="-30.0" y="-22.0" width="60.0" height="15.84" rx="6" fill="#d9c9a4"/><rect x="-25.0" y="13.0" width="50.0" height="6" rx="3" fill="#ffffff" opacity=".8"/></g><g transform="translate(940,208) rotate(8)" filter="url(#softsm)"><rect x="-35.0" y="-27.0" width="70.0" height="54.0" rx="10" fill="#ffffff"/><rect x="-30.0" y="-22.0" width="60.0" height="44.0" rx="7" fill="#efe6d1"/><rect x="-30.0" y="-22.0" width="60.0" height="15.84" rx="6" fill="#d9c9a4"/><rect x="-25.0" y="13.0" width="50.0" height="6" rx="3" fill="#ffffff" opacity=".8"/></g><g transform="translate(1060,232) rotate(14)" filter="url(#softsm)"><rect x="-35.0" y="-27.0" width="70.0" height="54.0" rx="10" fill="#ffffff"/><rect x="-30.0" y="-22.0" width="60.0" height="44.0" rx="7" fill="#efe6d1"/><rect x="-30.0" y="-22.0" width="60.0" height="15.84" rx="6" fill="#d9c9a4"/><rect x="-25.0" y="13.0" width="50.0" height="6" rx="3" fill="#ffffff" opacity=".8"/></g><g transform="translate(1150,330) rotate(90)" filter="url(#softsm)"><rect x="-35.0" y="-27.0" width="70.0" height="54.0" rx="10" fill="#ffffff"/><rect x="-30.0" y="-22.0" width="60.0" height="44.0" rx="7" fill="#efe6d1"/><rect x="-30.0" y="-22.0" width="60.0" height="15.84" rx="6" fill="#d9c9a4"/><rect x="-25.0" y="13.0" width="50.0" height="6" rx="3" fill="#ffffff" opacity=".8"/></g><g transform="translate(1160,450) rotate(90)" filter="url(#softsm)"><rect x="-35.0" y="-27.0" width="70.0" height="54.0" rx="10" fill="#ffffff"/><rect x="-30.0" y="-22.0" width="60.0" height="44.0" rx="7" fill="#efe6d1"/><rect x="-30.0" y="-22.0" width="60.0" height="15.84" rx="6" fill="#d9c9a4"/><rect x="-25.0" y="13.0" width="50.0" height="6" rx="3" fill="#ffffff" opacity=".8"/></g><g transform="translate(620,580) rotate(6)" filter="url(#softsm)"><rect x="-35.0" y="-27.0" width="70.0" height="54.0" rx="10" fill="#ffffff"/><rect x="-30.0" y="-22.0" width="60.0" height="44.0" rx="7" fill="#efe6d1"/><rect x="-30.0" y="-22.0" width="60.0" height="15.84" rx="6" fill="#d9c9a4"/><rect x="-25.0" y="13.0" width="50.0" height="6" rx="3" fill="#ffffff" opacity=".8"/></g><g transform="translate(740,606) rotate(0)" filter="url(#softsm)"><rect x="-35.0" y="-27.0" width="70.0" height="54.0" rx="10" fill="#ffffff"/><rect x="-30.0" y="-22.0" width="60.0" height="44.0" rx="7" fill="#efe6d1"/><rect x="-30.0" y="-22.0" width="60.0" height="15.84" rx="6" fill="#d9c9a4"/><rect x="-25.0" y="13.0" width="50.0" height="6" rx="3" fill="#ffffff" opacity=".8"/></g><g transform="translate(860,614) rotate(-4)" filter="url(#softsm)"><rect x="-35.0" y="-27.0" width="70.0" height="54.0" rx="10" fill="#ffffff"/><rect x="-30.0" y="-22.0" width="60.0" height="44.0" rx="7" fill="#efe6d1"/><rect x="-30.0" y="-22.0" width="60.0" height="15.84" rx="6" fill="#d9c9a4"/><rect x="-25.0" y="13.0" width="50.0" height="6" rx="3" fill="#ffffff" opacity=".8"/></g><g transform="translate(980,600) rotate(-8)" filter="url(#softsm)"><rect x="-35.0" y="-27.0" width="70.0" height="54.0" rx="10" fill="#ffffff"/><rect x="-30.0" y="-22.0" width="60.0" height="44.0" rx="7" fill="#efe6d1"/><rect x="-30.0" y="-22.0" width="60.0" height="15.84" rx="6" fill="#d9c9a4"/><rect x="-25.0" y="13.0" width="50.0" height="6" rx="3" fill="#ffffff" opacity=".8"/></g><g transform="translate(1090,560) rotate(-14)" filter="url(#softsm)"><rect x="-35.0" y="-27.0" width="70.0" height="54.0" rx="10" fill="#ffffff"/><rect x="-30.0" y="-22.0" width="60.0" height="44.0" rx="7" fill="#efe6d1"/><rect x="-30.0" y="-22.0" width="60.0" height="15.84" rx="6" fill="#d9c9a4"/><rect x="-25.0" y="13.0" width="50.0" height="6" rx="3" fill="#ffffff" opacity=".8"/></g><g transform="translate(500,430) rotate(90)" filter="url(#softsm)"><rect x="-35.0" y="-27.0" width="70.0" height="54.0" rx="10" fill="#ffffff"/><rect x="-30.0" y="-22.0" width="60.0" height="44.0" rx="7" fill="#efe6d1"/><rect x="-30.0" y="-22.0" width="60.0" height="15.84" rx="6" fill="#d9c9a4"/><rect x="-25.0" y="13.0" width="50.0" height="6" rx="3" fill="#ffffff" opacity=".8"/></g><g transform="translate(505,540) rotate(90)" filter="url(#softsm)"><rect x="-35.0" y="-27.0" width="70.0" height="54.0" rx="10" fill="#ffffff"/><rect x="-30.0" y="-22.0" width="60.0" height="44.0" rx="7" fill="#efe6d1"/><rect x="-30.0" y="-22.0" width="60.0" height="15.84" rx="6" fill="#d9c9a4"/><rect x="-25.0" y="13.0" width="50.0" height="6" rx="3" fill="#ffffff" opacity=".8"/></g><g transform="translate(1330,410)" filter="url(#soft)"><circle r="64" fill="#f7f2e6" stroke="#e4d9c2" stroke-width="6"/><circle r="30" fill="#d9b077"/><circle cx="48.0" cy="0.0" r="8" fill="#ffffff" stroke="#e4d9c2" stroke-width="2"/><circle cx="24.000000000000007" cy="41.569219381653056" r="8" fill="#ffffff" stroke="#e4d9c2" stroke-width="2"/><circle cx="-23.999999999999993" cy="41.569219381653056" r="8" fill="#ffffff" stroke="#e4d9c2" stroke-width="2"/><circle cx="-48.0" cy="5.878304635907295e-15" r="8" fill="#ffffff" stroke="#e4d9c2" stroke-width="2"/><circle cx="-24.00000000000002" cy="-41.56921938165304" r="8" fill="#ffffff" stroke="#e4d9c2" stroke-width="2"/><circle cx="24.000000000000007" cy="-41.569219381653056" r="8" fill="#ffffff" stroke="#e4d9c2" stroke-width="2"/></g><g transform="translate(1330,610)" filter="url(#soft)"><circle r="52" fill="#241f3d"/><circle r="34" fill="#39306b"/><circle r="13" fill="#8b7cf7"/></g><g transform="translate(180,822)" filter="url(#softsm)"><rect x="-30" y="-10" width="24" height="44" rx="6" fill="#fffdf6"/><rect x="4" y="-10" width="24" height="44" rx="6" fill="#fffdf6"/><circle cx="0" cy="-22" r="24" fill="#f6dfae" stroke="#eccb87" stroke-width="3"/><circle cx="0" cy="-22" r="3.6" fill="#caa25f"/></g><g transform="translate(330,822)" filter="url(#softsm)"><rect x="-30" y="-10" width="24" height="44" rx="6" fill="#fffdf6"/><rect x="4" y="-10" width="24" height="44" rx="6" fill="#fffdf6"/><circle cx="0" cy="-22" r="24" fill="#f6dfae" stroke="#eccb87" stroke-width="3"/><circle cx="0" cy="-22" r="3.6" fill="#caa25f"/></g><g transform="translate(480,822)" filter="url(#softsm)"><rect x="-30" y="-10" width="24" height="44" rx="6" fill="#fffdf6"/><rect x="4" y="-10" width="24" height="44" rx="6" fill="#fffdf6"/><circle cx="0" cy="-22" r="24" fill="#f6dfae" stroke="#eccb87" stroke-width="3"/><circle cx="0" cy="-22" r="3.6" fill="#caa25f"/></g><g transform="translate(630,822)" filter="url(#softsm)"><rect x="-30" y="-10" width="24" height="44" rx="6" fill="#fffdf6"/><rect x="4" y="-10" width="24" height="44" rx="6" fill="#fffdf6"/><circle cx="0" cy="-22" r="24" fill="#f6dfae" stroke="#eccb87" stroke-width="3"/><circle cx="0" cy="-22" r="3.6" fill="#caa25f"/></g><g transform="translate(780,822)" filter="url(#softsm)"><rect x="-30" y="-10" width="24" height="44" rx="6" fill="#fffdf6"/><rect x="4" y="-10" width="24" height="44" rx="6" fill="#fffdf6"/><circle cx="0" cy="-22" r="24" fill="#f6dfae" stroke="#eccb87" stroke-width="3"/><circle cx="0" cy="-22" r="3.6" fill="#caa25f"/></g><g transform="translate(930,822)" filter="url(#softsm)"><rect x="-30" y="-10" width="24" height="44" rx="6" fill="#fffdf6"/><rect x="4" y="-10" width="24" height="44" rx="6" fill="#fffdf6"/><circle cx="0" cy="-22" r="24" fill="#f6dfae" stroke="#eccb87" stroke-width="3"/><circle cx="0" cy="-22" r="3.6" fill="#caa25f"/></g><g transform="translate(1080,822)" filter="url(#softsm)"><rect x="-30" y="-10" width="24" height="44" rx="6" fill="#fffdf6"/><rect x="4" y="-10" width="24" height="44" rx="6" fill="#fffdf6"/><circle cx="0" cy="-22" r="24" fill="#f6dfae" stroke="#eccb87" stroke-width="3"/><circle cx="0" cy="-22" r="3.6" fill="#caa25f"/></g><g transform="translate(1230,822)" filter="url(#softsm)"><rect x="-30" y="-10" width="24" height="44" rx="6" fill="#fffdf6"/><rect x="4" y="-10" width="24" height="44" rx="6" fill="#fffdf6"/><circle cx="0" cy="-22" r="24" fill="#f6dfae" stroke="#eccb87" stroke-width="3"/><circle cx="0" cy="-22" r="3.6" fill="#caa25f"/></g><g transform="translate(1380,822)" filter="url(#softsm)"><rect x="-30" y="-10" width="24" height="44" rx="6" fill="#fffdf6"/><rect x="4" y="-10" width="24" height="44" rx="6" fill="#fffdf6"/><circle cx="0" cy="-22" r="24" fill="#f6dfae" stroke="#eccb87" stroke-width="3"/><circle cx="0" cy="-22" r="3.6" fill="#caa25f"/></g><g transform="translate(330,672) rotate(0)" filter="url(#softsm)"><rect x="-43.75" y="-33.75" width="87.5" height="67.5" rx="10" fill="#ffffff"/><rect x="-38.75" y="-28.75" width="77.5" height="57.5" rx="7" fill="#efe6d1"/><rect x="-38.75" y="-28.75" width="77.5" height="20.7" rx="6" fill="#d9c9a4"/><rect x="-33.75" y="19.75" width="67.5" height="6" rx="3" fill="#ffffff" opacity=".8"/></g><g transform="translate(620,682) rotate(0)" filter="url(#softsm)"><rect x="-43.75" y="-33.75" width="87.5" height="67.5" rx="10" fill="#ffffff"/><rect x="-38.75" y="-28.75" width="77.5" height="57.5" rx="7" fill="#efe6d1"/><rect x="-38.75" y="-28.75" width="77.5" height="20.7" rx="6" fill="#d9c9a4"/><rect x="-33.75" y="19.75" width="67.5" height="6" rx="3" fill="#ffffff" opacity=".8"/></g><g transform="translate(910,682) rotate(0)" filter="url(#softsm)"><rect x="-43.75" y="-33.75" width="87.5" height="67.5" rx="10" fill="#ffffff"/><rect x="-38.75" y="-28.75" width="77.5" height="57.5" rx="7" fill="#efe6d1"/><rect x="-38.75" y="-28.75" width="77.5" height="20.7" rx="6" fill="#d9c9a4"/><rect x="-33.75" y="19.75" width="67.5" height="6" rx="3" fill="#ffffff" opacity=".8"/></g><g transform="translate(1200,672) rotate(0)" filter="url(#softsm)"><rect x="-43.75" y="-33.75" width="87.5" height="67.5" rx="10" fill="#ffffff"/><rect x="-38.75" y="-28.75" width="77.5" height="57.5" rx="7" fill="#efe6d1"/><rect x="-38.75" y="-28.75" width="77.5" height="20.7" rx="6" fill="#d9c9a4"/><rect x="-33.75" y="19.75" width="67.5" height="6" rx="3" fill="#ffffff" opacity=".8"/></g><g transform="translate(70,180)" filter="url(#softsm)"><circle r="34.2" fill="#245f36" opacity=".25"/><path d="M0 0 C 6.84 -13.299999999999999 11.4 -28.5 0 -39.9 C -11.4 -28.5 -6.84 -13.299999999999999 0 0 Z" fill="#2f8047" transform="rotate(0)"/><path d="M0 0 C 6.84 -13.299999999999999 11.4 -28.5 0 -39.9 C -11.4 -28.5 -6.84 -13.299999999999999 0 0 Z" fill="#3c9455" transform="rotate(40)"/><path d="M0 0 C 6.84 -13.299999999999999 11.4 -28.5 0 -39.9 C -11.4 -28.5 -6.84 -13.299999999999999 0 0 Z" fill="#2a7440" transform="rotate(80)"/><path d="M0 0 C 6.84 -13.299999999999999 11.4 -28.5 0 -39.9 C -11.4 -28.5 -6.84 -13.299999999999999 0 0 Z" fill="#37884d" transform="rotate(120)"/><path d="M0 0 C 6.84 -13.299999999999999 11.4 -28.5 0 -39.9 C -11.4 -28.5 -6.84 -13.299999999999999 0 0 Z" fill="#2f8047" transform="rotate(160)"/><path d="M0 0 C 6.84 -13.299999999999999 11.4 -28.5 0 -39.9 C -11.4 -28.5 -6.84 -13.299999999999999 0 0 Z" fill="#3c9455" transform="rotate(200)"/><path d="M0 0 C 6.84 -13.299999999999999 11.4 -28.5 0 -39.9 C -11.4 -28.5 -6.84 -13.299999999999999 0 0 Z" fill="#2a7440" transform="rotate(240)"/><path d="M0 0 C 6.84 -13.299999999999999 11.4 -28.5 0 -39.9 C -11.4 -28.5 -6.84 -13.299999999999999 0 0 Z" fill="#37884d" transform="rotate(280)"/><path d="M0 0 C 6.84 -13.299999999999999 11.4 -28.5 0 -39.9 C -11.4 -28.5 -6.84 -13.299999999999999 0 0 Z" fill="#2f8047" transform="rotate(320)"/><circle r="5.32" fill="#5f4426"/></g><g transform="translate(240,168)" filter="url(#softsm)"><circle r="27.0" fill="#245f36" opacity=".25"/><path d="M0 0 C 5.3999999999999995 -10.5 9.0 -22.5 0 -31.5 C -9.0 -22.5 -5.3999999999999995 -10.5 0 0 Z" fill="#2f8047" transform="rotate(0)"/><path d="M0 0 C 5.3999999999999995 -10.5 9.0 -22.5 0 -31.5 C -9.0 -22.5 -5.3999999999999995 -10.5 0 0 Z" fill="#3c9455" transform="rotate(40)"/><path d="M0 0 C 5.3999999999999995 -10.5 9.0 -22.5 0 -31.5 C -9.0 -22.5 -5.3999999999999995 -10.5 0 0 Z" fill="#2a7440" transform="rotate(80)"/><path d="M0 0 C 5.3999999999999995 -10.5 9.0 -22.5 0 -31.5 C -9.0 -22.5 -5.3999999999999995 -10.5 0 0 Z" fill="#37884d" transform="rotate(120)"/><path d="M0 0 C 5.3999999999999995 -10.5 9.0 -22.5 0 -31.5 C -9.0 -22.5 -5.3999999999999995 -10.5 0 0 Z" fill="#2f8047" transform="rotate(160)"/><path d="M0 0 C 5.3999999999999995 -10.5 9.0 -22.5 0 -31.5 C -9.0 -22.5 -5.3999999999999995 -10.5 0 0 Z" fill="#3c9455" transform="rotate(200)"/><path d="M0 0 C 5.3999999999999995 -10.5 9.0 -22.5 0 -31.5 C -9.0 -22.5 -5.3999999999999995 -10.5 0 0 Z" fill="#2a7440" transform="rotate(240)"/><path d="M0 0 C 5.3999999999999995 -10.5 9.0 -22.5 0 -31.5 C -9.0 -22.5 -5.3999999999999995 -10.5 0 0 Z" fill="#37884d" transform="rotate(280)"/><path d="M0 0 C 5.3999999999999995 -10.5 9.0 -22.5 0 -31.5 C -9.0 -22.5 -5.3999999999999995 -10.5 0 0 Z" fill="#2f8047" transform="rotate(320)"/><circle r="4.2" fill="#5f4426"/></g><g transform="translate(430,180)" filter="url(#softsm)"><circle r="32.4" fill="#245f36" opacity=".25"/><path d="M0 0 C 6.4799999999999995 -12.6 10.799999999999999 -27.0 0 -37.800000000000004 C -10.799999999999999 -27.0 -6.4799999999999995 -12.6 0 0 Z" fill="#2f8047" transform="rotate(0)"/><path d="M0 0 C 6.4799999999999995 -12.6 10.799999999999999 -27.0 0 -37.800000000000004 C -10.799999999999999 -27.0 -6.4799999999999995 -12.6 0 0 Z" fill="#3c9455" transform="rotate(40)"/><path d="M0 0 C 6.4799999999999995 -12.6 10.799999999999999 -27.0 0 -37.800000000000004 C -10.799999999999999 -27.0 -6.4799999999999995 -12.6 0 0 Z" fill="#2a7440" transform="rotate(80)"/><path d="M0 0 C 6.4799999999999995 -12.6 10.799999999999999 -27.0 0 -37.800000000000004 C -10.799999999999999 -27.0 -6.4799999999999995 -12.6 0 0 Z" fill="#37884d" transform="rotate(120)"/><path d="M0 0 C 6.4799999999999995 -12.6 10.799999999999999 -27.0 0 -37.800000000000004 C -10.799999999999999 -27.0 -6.4799999999999995 -12.6 0 0 Z" fill="#2f8047" transform="rotate(160)"/><path d="M0 0 C 6.4799999999999995 -12.6 10.799999999999999 -27.0 0 -37.800000000000004 C -10.799999999999999 -27.0 -6.4799999999999995 -12.6 0 0 Z" fill="#3c9455" transform="rotate(200)"/><path d="M0 0 C 6.4799999999999995 -12.6 10.799999999999999 -27.0 0 -37.800000000000004 C -10.799999999999999 -27.0 -6.4799999999999995 -12.6 0 0 Z" fill="#2a7440" transform="rotate(240)"/><path d="M0 0 C 6.4799999999999995 -12.6 10.799999999999999 -27.0 0 -37.800000000000004 C -10.799999999999999 -27.0 -6.4799999999999995 -12.6 0 0 Z" fill="#37884d" transform="rotate(280)"/><path d="M0 0 C 6.4799999999999995 -12.6 10.799999999999999 -27.0 0 -37.800000000000004 C -10.799999999999999 -27.0 -6.4799999999999995 -12.6 0 0 Z" fill="#2f8047" transform="rotate(320)"/><circle r="5.040000000000001" fill="#5f4426"/></g><g transform="translate(640,166)" filter="url(#softsm)"><circle r="25.2" fill="#245f36" opacity=".25"/><path d="M0 0 C 5.04 -9.799999999999999 8.4 -21.0 0 -29.400000000000002 C -8.4 -21.0 -5.04 -9.799999999999999 0 0 Z" fill="#2f8047" transform="rotate(0)"/><path d="M0 0 C 5.04 -9.799999999999999 8.4 -21.0 0 -29.400000000000002 C -8.4 -21.0 -5.04 -9.799999999999999 0 0 Z" fill="#3c9455" transform="rotate(40)"/><path d="M0 0 C 5.04 -9.799999999999999 8.4 -21.0 0 -29.400000000000002 C -8.4 -21.0 -5.04 -9.799999999999999 0 0 Z" fill="#2a7440" transform="rotate(80)"/><path d="M0 0 C 5.04 -9.799999999999999 8.4 -21.0 0 -29.400000000000002 C -8.4 -21.0 -5.04 -9.799999999999999 0 0 Z" fill="#37884d" transform="rotate(120)"/><path d="M0 0 C 5.04 -9.799999999999999 8.4 -21.0 0 -29.400000000000002 C -8.4 -21.0 -5.04 -9.799999999999999 0 0 Z" fill="#2f8047" transform="rotate(160)"/><path d="M0 0 C 5.04 -9.799999999999999 8.4 -21.0 0 -29.400000000000002 C -8.4 -21.0 -5.04 -9.799999999999999 0 0 Z" fill="#3c9455" transform="rotate(200)"/><path d="M0 0 C 5.04 -9.799999999999999 8.4 -21.0 0 -29.400000000000002 C -8.4 -21.0 -5.04 -9.799999999999999 0 0 Z" fill="#2a7440" transform="rotate(240)"/><path d="M0 0 C 5.04 -9.799999999999999 8.4 -21.0 0 -29.400000000000002 C -8.4 -21.0 -5.04 -9.799999999999999 0 0 Z" fill="#37884d" transform="rotate(280)"/><path d="M0 0 C 5.04 -9.799999999999999 8.4 -21.0 0 -29.400000000000002 C -8.4 -21.0 -5.04 -9.799999999999999 0 0 Z" fill="#2f8047" transform="rotate(320)"/><circle r="3.9200000000000004" fill="#5f4426"/></g><g transform="translate(850,178)" filter="url(#softsm)"><circle r="30.6" fill="#245f36" opacity=".25"/><path d="M0 0 C 6.12 -11.899999999999999 10.2 -25.5 0 -35.7 C -10.2 -25.5 -6.12 -11.899999999999999 0 0 Z" fill="#2f8047" transform="rotate(0)"/><path d="M0 0 C 6.12 -11.899999999999999 10.2 -25.5 0 -35.7 C -10.2 -25.5 -6.12 -11.899999999999999 0 0 Z" fill="#3c9455" transform="rotate(40)"/><path d="M0 0 C 6.12 -11.899999999999999 10.2 -25.5 0 -35.7 C -10.2 -25.5 -6.12 -11.899999999999999 0 0 Z" fill="#2a7440" transform="rotate(80)"/><path d="M0 0 C 6.12 -11.899999999999999 10.2 -25.5 0 -35.7 C -10.2 -25.5 -6.12 -11.899999999999999 0 0 Z" fill="#37884d" transform="rotate(120)"/><path d="M0 0 C 6.12 -11.899999999999999 10.2 -25.5 0 -35.7 C -10.2 -25.5 -6.12 -11.899999999999999 0 0 Z" fill="#2f8047" transform="rotate(160)"/><path d="M0 0 C 6.12 -11.899999999999999 10.2 -25.5 0 -35.7 C -10.2 -25.5 -6.12 -11.899999999999999 0 0 Z" fill="#3c9455" transform="rotate(200)"/><path d="M0 0 C 6.12 -11.899999999999999 10.2 -25.5 0 -35.7 C -10.2 -25.5 -6.12 -11.899999999999999 0 0 Z" fill="#2a7440" transform="rotate(240)"/><path d="M0 0 C 6.12 -11.899999999999999 10.2 -25.5 0 -35.7 C -10.2 -25.5 -6.12 -11.899999999999999 0 0 Z" fill="#37884d" transform="rotate(280)"/><path d="M0 0 C 6.12 -11.899999999999999 10.2 -25.5 0 -35.7 C -10.2 -25.5 -6.12 -11.899999999999999 0 0 Z" fill="#2f8047" transform="rotate(320)"/><circle r="4.760000000000001" fill="#5f4426"/></g><g transform="translate(1060,168)" filter="url(#softsm)"><circle r="27.0" fill="#245f36" opacity=".25"/><path d="M0 0 C 5.3999999999999995 -10.5 9.0 -22.5 0 -31.5 C -9.0 -22.5 -5.3999999999999995 -10.5 0 0 Z" fill="#2f8047" transform="rotate(0)"/><path d="M0 0 C 5.3999999999999995 -10.5 9.0 -22.5 0 -31.5 C -9.0 -22.5 -5.3999999999999995 -10.5 0 0 Z" fill="#3c9455" transform="rotate(40)"/><path d="M0 0 C 5.3999999999999995 -10.5 9.0 -22.5 0 -31.5 C -9.0 -22.5 -5.3999999999999995 -10.5 0 0 Z" fill="#2a7440" transform="rotate(80)"/><path d="M0 0 C 5.3999999999999995 -10.5 9.0 -22.5 0 -31.5 C -9.0 -22.5 -5.3999999999999995 -10.5 0 0 Z" fill="#37884d" transform="rotate(120)"/><path d="M0 0 C 5.3999999999999995 -10.5 9.0 -22.5 0 -31.5 C -9.0 -22.5 -5.3999999999999995 -10.5 0 0 Z" fill="#2f8047" transform="rotate(160)"/><path d="M0 0 C 5.3999999999999995 -10.5 9.0 -22.5 0 -31.5 C -9.0 -22.5 -5.3999999999999995 -10.5 0 0 Z" fill="#3c9455" transform="rotate(200)"/><path d="M0 0 C 5.3999999999999995 -10.5 9.0 -22.5 0 -31.5 C -9.0 -22.5 -5.3999999999999995 -10.5 0 0 Z" fill="#2a7440" transform="rotate(240)"/><path d="M0 0 C 5.3999999999999995 -10.5 9.0 -22.5 0 -31.5 C -9.0 -22.5 -5.3999999999999995 -10.5 0 0 Z" fill="#37884d" transform="rotate(280)"/><path d="M0 0 C 5.3999999999999995 -10.5 9.0 -22.5 0 -31.5 C -9.0 -22.5 -5.3999999999999995 -10.5 0 0 Z" fill="#2f8047" transform="rotate(320)"/><circle r="4.2" fill="#5f4426"/></g><g transform="translate(1260,180)" filter="url(#softsm)"><circle r="32.4" fill="#245f36" opacity=".25"/><path d="M0 0 C 6.4799999999999995 -12.6 10.799999999999999 -27.0 0 -37.800000000000004 C -10.799999999999999 -27.0 -6.4799999999999995 -12.6 0 0 Z" fill="#2f8047" transform="rotate(0)"/><path d="M0 0 C 6.4799999999999995 -12.6 10.799999999999999 -27.0 0 -37.800000000000004 C -10.799999999999999 -27.0 -6.4799999999999995 -12.6 0 0 Z" fill="#3c9455" transform="rotate(40)"/><path d="M0 0 C 6.4799999999999995 -12.6 10.799999999999999 -27.0 0 -37.800000000000004 C -10.799999999999999 -27.0 -6.4799999999999995 -12.6 0 0 Z" fill="#2a7440" transform="rotate(80)"/><path d="M0 0 C 6.4799999999999995 -12.6 10.799999999999999 -27.0 0 -37.800000000000004 C -10.799999999999999 -27.0 -6.4799999999999995 -12.6 0 0 Z" fill="#37884d" transform="rotate(120)"/><path d="M0 0 C 6.4799999999999995 -12.6 10.799999999999999 -27.0 0 -37.800000000000004 C -10.799999999999999 -27.0 -6.4799999999999995 -12.6 0 0 Z" fill="#2f8047" transform="rotate(160)"/><path d="M0 0 C 6.4799999999999995 -12.6 10.799999999999999 -27.0 0 -37.800000000000004 C -10.799999999999999 -27.0 -6.4799999999999995 -12.6 0 0 Z" fill="#3c9455" transform="rotate(200)"/><path d="M0 0 C 6.4799999999999995 -12.6 10.799999999999999 -27.0 0 -37.800000000000004 C -10.799999999999999 -27.0 -6.4799999999999995 -12.6 0 0 Z" fill="#2a7440" transform="rotate(240)"/><path d="M0 0 C 6.4799999999999995 -12.6 10.799999999999999 -27.0 0 -37.800000000000004 C -10.799999999999999 -27.0 -6.4799999999999995 -12.6 0 0 Z" fill="#37884d" transform="rotate(280)"/><path d="M0 0 C 6.4799999999999995 -12.6 10.799999999999999 -27.0 0 -37.800000000000004 C -10.799999999999999 -27.0 -6.4799999999999995 -12.6 0 0 Z" fill="#2f8047" transform="rotate(320)"/><circle r="5.040000000000001" fill="#5f4426"/></g><g transform="translate(1460,170)" filter="url(#softsm)"><circle r="28.8" fill="#245f36" opacity=".25"/><path d="M0 0 C 5.76 -11.2 9.6 -24.0 0 -33.6 C -9.6 -24.0 -5.76 -11.2 0 0 Z" fill="#2f8047" transform="rotate(0)"/><path d="M0 0 C 5.76 -11.2 9.6 -24.0 0 -33.6 C -9.6 -24.0 -5.76 -11.2 0 0 Z" fill="#3c9455" transform="rotate(40)"/><path d="M0 0 C 5.76 -11.2 9.6 -24.0 0 -33.6 C -9.6 -24.0 -5.76 -11.2 0 0 Z" fill="#2a7440" transform="rotate(80)"/><path d="M0 0 C 5.76 -11.2 9.6 -24.0 0 -33.6 C -9.6 -24.0 -5.76 -11.2 0 0 Z" fill="#37884d" transform="rotate(120)"/><path d="M0 0 C 5.76 -11.2 9.6 -24.0 0 -33.6 C -9.6 -24.0 -5.76 -11.2 0 0 Z" fill="#2f8047" transform="rotate(160)"/><path d="M0 0 C 5.76 -11.2 9.6 -24.0 0 -33.6 C -9.6 -24.0 -5.76 -11.2 0 0 Z" fill="#3c9455" transform="rotate(200)"/><path d="M0 0 C 5.76 -11.2 9.6 -24.0 0 -33.6 C -9.6 -24.0 -5.76 -11.2 0 0 Z" fill="#2a7440" transform="rotate(240)"/><path d="M0 0 C 5.76 -11.2 9.6 -24.0 0 -33.6 C -9.6 -24.0 -5.76 -11.2 0 0 Z" fill="#37884d" transform="rotate(280)"/><path d="M0 0 C 5.76 -11.2 9.6 -24.0 0 -33.6 C -9.6 -24.0 -5.76 -11.2 0 0 Z" fill="#2f8047" transform="rotate(320)"/><circle r="4.48" fill="#5f4426"/></g><g transform="translate(70,760)" filter="url(#softsm)"><circle r="30.6" fill="#245f36" opacity=".25"/><path d="M0 0 C 6.12 -11.899999999999999 10.2 -25.5 0 -35.7 C -10.2 -25.5 -6.12 -11.899999999999999 0 0 Z" fill="#2f8047" transform="rotate(0)"/><path d="M0 0 C 6.12 -11.899999999999999 10.2 -25.5 0 -35.7 C -10.2 -25.5 -6.12 -11.899999999999999 0 0 Z" fill="#3c9455" transform="rotate(40)"/><path d="M0 0 C 6.12 -11.899999999999999 10.2 -25.5 0 -35.7 C -10.2 -25.5 -6.12 -11.899999999999999 0 0 Z" fill="#2a7440" transform="rotate(80)"/><path d="M0 0 C 6.12 -11.899999999999999 10.2 -25.5 0 -35.7 C -10.2 -25.5 -6.12 -11.899999999999999 0 0 Z" fill="#37884d" transform="rotate(120)"/><path d="M0 0 C 6.12 -11.899999999999999 10.2 -25.5 0 -35.7 C -10.2 -25.5 -6.12 -11.899999999999999 0 0 Z" fill="#2f8047" transform="rotate(160)"/><path d="M0 0 C 6.12 -11.899999999999999 10.2 -25.5 0 -35.7 C -10.2 -25.5 -6.12 -11.899999999999999 0 0 Z" fill="#3c9455" transform="rotate(200)"/><path d="M0 0 C 6.12 -11.899999999999999 10.2 -25.5 0 -35.7 C -10.2 -25.5 -6.12 -11.899999999999999 0 0 Z" fill="#2a7440" transform="rotate(240)"/><path d="M0 0 C 6.12 -11.899999999999999 10.2 -25.5 0 -35.7 C -10.2 -25.5 -6.12 -11.899999999999999 0 0 Z" fill="#37884d" transform="rotate(280)"/><path d="M0 0 C 6.12 -11.899999999999999 10.2 -25.5 0 -35.7 C -10.2 -25.5 -6.12 -11.899999999999999 0 0 Z" fill="#2f8047" transform="rotate(320)"/><circle r="4.760000000000001" fill="#5f4426"/></g><g transform="translate(1480,760)" filter="url(#softsm)"><circle r="30.6" fill="#245f36" opacity=".25"/><path d="M0 0 C 6.12 -11.899999999999999 10.2 -25.5 0 -35.7 C -10.2 -25.5 -6.12 -11.899999999999999 0 0 Z" fill="#2f8047" transform="rotate(0)"/><path d="M0 0 C 6.12 -11.899999999999999 10.2 -25.5 0 -35.7 C -10.2 -25.5 -6.12 -11.899999999999999 0 0 Z" fill="#3c9455" transform="rotate(40)"/><path d="M0 0 C 6.12 -11.899999999999999 10.2 -25.5 0 -35.7 C -10.2 -25.5 -6.12 -11.899999999999999 0 0 Z" fill="#2a7440" transform="rotate(80)"/><path d="M0 0 C 6.12 -11.899999999999999 10.2 -25.5 0 -35.7 C -10.2 -25.5 -6.12 -11.899999999999999 0 0 Z" fill="#37884d" transform="rotate(120)"/><path d="M0 0 C 6.12 -11.899999999999999 10.2 -25.5 0 -35.7 C -10.2 -25.5 -6.12 -11.899999999999999 0 0 Z" fill="#2f8047" transform="rotate(160)"/><path d="M0 0 C 6.12 -11.899999999999999 10.2 -25.5 0 -35.7 C -10.2 -25.5 -6.12 -11.899999999999999 0 0 Z" fill="#3c9455" transform="rotate(200)"/><path d="M0 0 C 6.12 -11.899999999999999 10.2 -25.5 0 -35.7 C -10.2 -25.5 -6.12 -11.899999999999999 0 0 Z" fill="#2a7440" transform="rotate(240)"/><path d="M0 0 C 6.12 -11.899999999999999 10.2 -25.5 0 -35.7 C -10.2 -25.5 -6.12 -11.899999999999999 0 0 Z" fill="#37884d" transform="rotate(280)"/><path d="M0 0 C 6.12 -11.899999999999999 10.2 -25.5 0 -35.7 C -10.2 -25.5 -6.12 -11.899999999999999 0 0 Z" fill="#2f8047" transform="rotate(320)"/><circle r="4.760000000000001" fill="#5f4426"/></g><g transform="translate(60,520)" filter="url(#softsm)"><circle r="27.0" fill="#245f36" opacity=".25"/><path d="M0 0 C 5.3999999999999995 -10.5 9.0 -22.5 0 -31.5 C -9.0 -22.5 -5.3999999999999995 -10.5 0 0 Z" fill="#2f8047" transform="rotate(0)"/><path d="M0 0 C 5.3999999999999995 -10.5 9.0 -22.5 0 -31.5 C -9.0 -22.5 -5.3999999999999995 -10.5 0 0 Z" fill="#3c9455" transform="rotate(40)"/><path d="M0 0 C 5.3999999999999995 -10.5 9.0 -22.5 0 -31.5 C -9.0 -22.5 -5.3999999999999995 -10.5 0 0 Z" fill="#2a7440" transform="rotate(80)"/><path d="M0 0 C 5.3999999999999995 -10.5 9.0 -22.5 0 -31.5 C -9.0 -22.5 -5.3999999999999995 -10.5 0 0 Z" fill="#37884d" transform="rotate(120)"/><path d="M0 0 C 5.3999999999999995 -10.5 9.0 -22.5 0 -31.5 C -9.0 -22.5 -5.3999999999999995 -10.5 0 0 Z" fill="#2f8047" transform="rotate(160)"/><path d="M0 0 C 5.3999999999999995 -10.5 9.0 -22.5 0 -31.5 C -9.0 -22.5 -5.3999999999999995 -10.5 0 0 Z" fill="#3c9455" transform="rotate(200)"/><path d="M0 0 C 5.3999999999999995 -10.5 9.0 -22.5 0 -31.5 C -9.0 -22.5 -5.3999999999999995 -10.5 0 0 Z" fill="#2a7440" transform="rotate(240)"/><path d="M0 0 C 5.3999999999999995 -10.5 9.0 -22.5 0 -31.5 C -9.0 -22.5 -5.3999999999999995 -10.5 0 0 Z" fill="#37884d" transform="rotate(280)"/><path d="M0 0 C 5.3999999999999995 -10.5 9.0 -22.5 0 -31.5 C -9.0 -22.5 -5.3999999999999995 -10.5 0 0 Z" fill="#2f8047" transform="rotate(320)"/><circle r="4.2" fill="#5f4426"/></g><g transform="translate(1480,300)" filter="url(#softsm)"><circle r="27.0" fill="#245f36" opacity=".25"/><path d="M0 0 C 5.3999999999999995 -10.5 9.0 -22.5 0 -31.5 C -9.0 -22.5 -5.3999999999999995 -10.5 0 0 Z" fill="#2f8047" transform="rotate(0)"/><path d="M0 0 C 5.3999999999999995 -10.5 9.0 -22.5 0 -31.5 C -9.0 -22.5 -5.3999999999999995 -10.5 0 0 Z" fill="#3c9455" transform="rotate(40)"/><path d="M0 0 C 5.3999999999999995 -10.5 9.0 -22.5 0 -31.5 C -9.0 -22.5 -5.3999999999999995 -10.5 0 0 Z" fill="#2a7440" transform="rotate(80)"/><path d="M0 0 C 5.3999999999999995 -10.5 9.0 -22.5 0 -31.5 C -9.0 -22.5 -5.3999999999999995 -10.5 0 0 Z" fill="#37884d" transform="rotate(120)"/><path d="M0 0 C 5.3999999999999995 -10.5 9.0 -22.5 0 -31.5 C -9.0 -22.5 -5.3999999999999995 -10.5 0 0 Z" fill="#2f8047" transform="rotate(160)"/><path d="M0 0 C 5.3999999999999995 -10.5 9.0 -22.5 0 -31.5 C -9.0 -22.5 -5.3999999999999995 -10.5 0 0 Z" fill="#3c9455" transform="rotate(200)"/><path d="M0 0 C 5.3999999999999995 -10.5 9.0 -22.5 0 -31.5 C -9.0 -22.5 -5.3999999999999995 -10.5 0 0 Z" fill="#2a7440" transform="rotate(240)"/><path d="M0 0 C 5.3999999999999995 -10.5 9.0 -22.5 0 -31.5 C -9.0 -22.5 -5.3999999999999995 -10.5 0 0 Z" fill="#37884d" transform="rotate(280)"/><path d="M0 0 C 5.3999999999999995 -10.5 9.0 -22.5 0 -31.5 C -9.0 -22.5 -5.3999999999999995 -10.5 0 0 Z" fill="#2f8047" transform="rotate(320)"/><circle r="4.2" fill="#5f4426"/></g><g transform="translate(450,700)" filter="url(#softsm)"><circle r="23.400000000000002" fill="#245f36" opacity=".25"/><path d="M0 0 C 4.68 -9.1 7.8 -19.5 0 -27.3 C -7.8 -19.5 -4.68 -9.1 0 0 Z" fill="#2f8047" transform="rotate(0)"/><path d="M0 0 C 4.68 -9.1 7.8 -19.5 0 -27.3 C -7.8 -19.5 -4.68 -9.1 0 0 Z" fill="#3c9455" transform="rotate(40)"/><path d="M0 0 C 4.68 -9.1 7.8 -19.5 0 -27.3 C -7.8 -19.5 -4.68 -9.1 0 0 Z" fill="#2a7440" transform="rotate(80)"/><path d="M0 0 C 4.68 -9.1 7.8 -19.5 0 -27.3 C -7.8 -19.5 -4.68 -9.1 0 0 Z" fill="#37884d" transform="rotate(120)"/><path d="M0 0 C 4.68 -9.1 7.8 -19.5 0 -27.3 C -7.8 -19.5 -4.68 -9.1 0 0 Z" fill="#2f8047" transform="rotate(160)"/><path d="M0 0 C 4.68 -9.1 7.8 -19.5 0 -27.3 C -7.8 -19.5 -4.68 -9.1 0 0 Z" fill="#3c9455" transform="rotate(200)"/><path d="M0 0 C 4.68 -9.1 7.8 -19.5 0 -27.3 C -7.8 -19.5 -4.68 -9.1 0 0 Z" fill="#2a7440" transform="rotate(240)"/><path d="M0 0 C 4.68 -9.1 7.8 -19.5 0 -27.3 C -7.8 -19.5 -4.68 -9.1 0 0 Z" fill="#37884d" transform="rotate(280)"/><path d="M0 0 C 4.68 -9.1 7.8 -19.5 0 -27.3 C -7.8 -19.5 -4.68 -9.1 0 0 Z" fill="#2f8047" transform="rotate(320)"/><circle r="3.6400000000000006" fill="#5f4426"/></g><g transform="translate(1000,700)" filter="url(#softsm)"><circle r="23.400000000000002" fill="#245f36" opacity=".25"/><path d="M0 0 C 4.68 -9.1 7.8 -19.5 0 -27.3 C -7.8 -19.5 -4.68 -9.1 0 0 Z" fill="#2f8047" transform="rotate(0)"/><path d="M0 0 C 4.68 -9.1 7.8 -19.5 0 -27.3 C -7.8 -19.5 -4.68 -9.1 0 0 Z" fill="#3c9455" transform="rotate(40)"/><path d="M0 0 C 4.68 -9.1 7.8 -19.5 0 -27.3 C -7.8 -19.5 -4.68 -9.1 0 0 Z" fill="#2a7440" transform="rotate(80)"/><path d="M0 0 C 4.68 -9.1 7.8 -19.5 0 -27.3 C -7.8 -19.5 -4.68 -9.1 0 0 Z" fill="#37884d" transform="rotate(120)"/><path d="M0 0 C 4.68 -9.1 7.8 -19.5 0 -27.3 C -7.8 -19.5 -4.68 -9.1 0 0 Z" fill="#2f8047" transform="rotate(160)"/><path d="M0 0 C 4.68 -9.1 7.8 -19.5 0 -27.3 C -7.8 -19.5 -4.68 -9.1 0 0 Z" fill="#3c9455" transform="rotate(200)"/><path d="M0 0 C 4.68 -9.1 7.8 -19.5 0 -27.3 C -7.8 -19.5 -4.68 -9.1 0 0 Z" fill="#2a7440" transform="rotate(240)"/><path d="M0 0 C 4.68 -9.1 7.8 -19.5 0 -27.3 C -7.8 -19.5 -4.68 -9.1 0 0 Z" fill="#37884d" transform="rotate(280)"/><path d="M0 0 C 4.68 -9.1 7.8 -19.5 0 -27.3 C -7.8 -19.5 -4.68 -9.1 0 0 Z" fill="#2f8047" transform="rotate(320)"/><circle r="3.6400000000000006" fill="#5f4426"/></g><g transform="translate(260,560)" filter="url(#softsm)"><circle r="21.6" fill="#245f36" opacity=".25"/><path d="M0 0 C 4.32 -8.399999999999999 7.199999999999999 -18.0 0 -25.200000000000003 C -7.199999999999999 -18.0 -4.32 -8.399999999999999 0 0 Z" fill="#2f8047" transform="rotate(0)"/><path d="M0 0 C 4.32 -8.399999999999999 7.199999999999999 -18.0 0 -25.200000000000003 C -7.199999999999999 -18.0 -4.32 -8.399999999999999 0 0 Z" fill="#3c9455" transform="rotate(40)"/><path d="M0 0 C 4.32 -8.399999999999999 7.199999999999999 -18.0 0 -25.200000000000003 C -7.199999999999999 -18.0 -4.32 -8.399999999999999 0 0 Z" fill="#2a7440" transform="rotate(80)"/><path d="M0 0 C 4.32 -8.399999999999999 7.199999999999999 -18.0 0 -25.200000000000003 C -7.199999999999999 -18.0 -4.32 -8.399999999999999 0 0 Z" fill="#37884d" transform="rotate(120)"/><path d="M0 0 C 4.32 -8.399999999999999 7.199999999999999 -18.0 0 -25.200000000000003 C -7.199999999999999 -18.0 -4.32 -8.399999999999999 0 0 Z" fill="#2f8047" transform="rotate(160)"/><path d="M0 0 C 4.32 -8.399999999999999 7.199999999999999 -18.0 0 -25.200000000000003 C -7.199999999999999 -18.0 -4.32 -8.399999999999999 0 0 Z" fill="#3c9455" transform="rotate(200)"/><path d="M0 0 C 4.32 -8.399999999999999 7.199999999999999 -18.0 0 -25.200000000000003 C -7.199999999999999 -18.0 -4.32 -8.399999999999999 0 0 Z" fill="#2a7440" transform="rotate(240)"/><path d="M0 0 C 4.32 -8.399999999999999 7.199999999999999 -18.0 0 -25.200000000000003 C -7.199999999999999 -18.0 -4.32 -8.399999999999999 0 0 Z" fill="#37884d" transform="rotate(280)"/><path d="M0 0 C 4.32 -8.399999999999999 7.199999999999999 -18.0 0 -25.200000000000003 C -7.199999999999999 -18.0 -4.32 -8.399999999999999 0 0 Z" fill="#2f8047" transform="rotate(320)"/><circle r="3.3600000000000003" fill="#5f4426"/></g><g transform="translate(1220,700)" filter="url(#softsm)"><circle r="25.2" fill="#245f36" opacity=".25"/><path d="M0 0 C 5.04 -9.799999999999999 8.4 -21.0 0 -29.400000000000002 C -8.4 -21.0 -5.04 -9.799999999999999 0 0 Z" fill="#2f8047" transform="rotate(0)"/><path d="M0 0 C 5.04 -9.799999999999999 8.4 -21.0 0 -29.400000000000002 C -8.4 -21.0 -5.04 -9.799999999999999 0 0 Z" fill="#3c9455" transform="rotate(40)"/><path d="M0 0 C 5.04 -9.799999999999999 8.4 -21.0 0 -29.400000000000002 C -8.4 -21.0 -5.04 -9.799999999999999 0 0 Z" fill="#2a7440" transform="rotate(80)"/><path d="M0 0 C 5.04 -9.799999999999999 8.4 -21.0 0 -29.400000000000002 C -8.4 -21.0 -5.04 -9.799999999999999 0 0 Z" fill="#37884d" transform="rotate(120)"/><path d="M0 0 C 5.04 -9.799999999999999 8.4 -21.0 0 -29.400000000000002 C -8.4 -21.0 -5.04 -9.799999999999999 0 0 Z" fill="#2f8047" transform="rotate(160)"/><path d="M0 0 C 5.04 -9.799999999999999 8.4 -21.0 0 -29.400000000000002 C -8.4 -21.0 -5.04 -9.799999999999999 0 0 Z" fill="#3c9455" transform="rotate(200)"/><path d="M0 0 C 5.04 -9.799999999999999 8.4 -21.0 0 -29.400000000000002 C -8.4 -21.0 -5.04 -9.799999999999999 0 0 Z" fill="#2a7440" transform="rotate(240)"/><path d="M0 0 C 5.04 -9.799999999999999 8.4 -21.0 0 -29.400000000000002 C -8.4 -21.0 -5.04 -9.799999999999999 0 0 Z" fill="#37884d" transform="rotate(280)"/><path d="M0 0 C 5.04 -9.799999999999999 8.4 -21.0 0 -29.400000000000002 C -8.4 -21.0 -5.04 -9.799999999999999 0 0 Z" fill="#2f8047" transform="rotate(320)"/><circle r="3.9200000000000004" fill="#5f4426"/></g><circle cx="504" cy="758" r="2.5" fill="#dcc491" opacity=".7"/><circle cx="128" cy="823" r="2.0" fill="#dcc491" opacity=".7"/><circle cx="107" cy="818" r="1.6" fill="#dcc491" opacity=".7"/><circle cx="669" cy="744" r="1.6" fill="#dcc491" opacity=".7"/><circle cx="655" cy="873" r="1.7" fill="#dcc491" opacity=".7"/><circle cx="354" cy="839" r="2.9" fill="#dcc491" opacity=".7"/><circle cx="883" cy="799" r="3.0" fill="#dcc491" opacity=".7"/><circle cx="90" cy="878" r="1.9" fill="#dcc491" opacity=".7"/><circle cx="236" cy="752" r="2.0" fill="#dcc491" opacity=".7"/><circle cx="1241" cy="763" r="2.4" fill="#dcc491" opacity=".7"/><circle cx="976" cy="795" r="2.3" fill="#dcc491" opacity=".7"/><circle cx="114" cy="742" r="1.8" fill="#dcc491" opacity=".7"/><circle cx="1038" cy="805" r="2.0" fill="#dcc491" opacity=".7"/><circle cx="896" cy="809" r="1.9" fill="#dcc491" opacity=".7"/><circle cx="1208" cy="851" r="1.9" fill="#dcc491" opacity=".7"/><circle cx="879" cy="821" r="2.8" fill="#dcc491" opacity=".7"/><circle cx="1111" cy="781" r="3.0" fill="#dcc491" opacity=".7"/><circle cx="197" cy="803" r="2.6" fill="#dcc491" opacity=".7"/><circle cx="247" cy="815" r="1.6" fill="#dcc491" opacity=".7"/><circle cx="1020" cy="862" r="2.4" fill="#dcc491" opacity=".7"/><circle cx="1330" cy="785" r="2.5" fill="#dcc491" opacity=".7"/><circle cx="909" cy="831" r="2.2" fill="#dcc491" opacity=".7"/><circle cx="1277" cy="893" r="2.2" fill="#dcc491" opacity=".7"/><circle cx="1014" cy="742" r="2.6" fill="#dcc491" opacity=".7"/><circle cx="988" cy="901" r="2.7" fill="#dcc491" opacity=".7"/><circle cx="446" cy="798" r="2.5" fill="#dcc491" opacity=".7"/><circle cx="54" cy="810" r="1.8" fill="#dcc491" opacity=".7"/><circle cx="195" cy="742" r="2.7" fill="#dcc491" opacity=".7"/><circle cx="213" cy="774" r="2.1" fill="#dcc491" opacity=".7"/><circle cx="1324" cy="746" r="2.2" fill="#dcc491" opacity=".7"/><circle cx="842" cy="882" r="2.7" fill="#dcc491" opacity=".7"/><circle cx="1313" cy="779" r="2.1" fill="#dcc491" opacity=".7"/><circle cx="557" cy="882" r="2.9" fill="#dcc491" opacity=".7"/><circle cx="246" cy="762" r="1.8" fill="#dcc491" opacity=".7"/><circle cx="369" cy="814" r="2.4" fill="#dcc491" opacity=".7"/><circle cx="413" cy="733" r="2.1" fill="#dcc491" opacity=".7"/><circle cx="572" cy="828" r="2.9" fill="#dcc491" opacity=".7"/><circle cx="1053" cy="820" r="2.4" fill="#dcc491" opacity=".7"/><circle cx="1032" cy="741" r="2.8" fill="#dcc491" opacity=".7"/><circle cx="1187" cy="881" r="2.7" fill="#dcc491" opacity=".7"/><circle cx="607" cy="800" r="1.7" fill="#dcc491" opacity=".7"/><circle cx="969" cy="743" r="1.6" fill="#dcc491" opacity=".7"/><circle cx="332" cy="760" r="2.0" fill="#dcc491" opacity=".7"/><circle cx="99" cy="732" r="1.7" fill="#dcc491" opacity=".7"/><circle cx="172" cy="794" r="1.5" fill="#dcc491" opacity=".7"/><circle cx="1328" cy="836" r="1.7" fill="#dcc491" opacity=".7"/><circle cx="397" cy="791" r="2.0" fill="#dcc491" opacity=".7"/><circle cx="204" cy="876" r="3.0" fill="#dcc491" opacity=".7"/><circle cx="717" cy="814" r="1.6" fill="#dcc491" opacity=".7"/><circle cx="173" cy="790" r="1.9" fill="#dcc491" opacity=".7"/><circle cx="1260" cy="759" r="1.5" fill="#dcc491" opacity=".7"/><circle cx="1443" cy="822" r="1.7" fill="#dcc491" opacity=".7"/><circle cx="833" cy="737" r="2.3" fill="#dcc491" opacity=".7"/><circle cx="1484" cy="879" r="2.5" fill="#dcc491" opacity=".7"/><circle cx="411" cy="794" r="1.8" fill="#dcc491" opacity=".7"/><circle cx="1175" cy="823" r="2.7" fill="#dcc491" opacity=".7"/><circle cx="513" cy="770" r="2.7" fill="#dcc491" opacity=".7"/><circle cx="1493" cy="877" r="2.7" fill="#dcc491" opacity=".7"/><circle cx="1244" cy="858" r="1.8" fill="#dcc491" opacity=".7"/><circle cx="794" cy="792" r="1.5" fill="#dcc491" opacity=".7"/><circle cx="62" cy="780" r="1.9" fill="#dcc491" opacity=".7"/><circle cx="1056" cy="895" r="2.2" fill="#dcc491" opacity=".7"/><circle cx="1422" cy="900" r="2.9" fill="#dcc491" opacity=".7"/><circle cx="565" cy="769" r="1.8" fill="#dcc491" opacity=".7"/><circle cx="314" cy="767" r="2.4" fill="#dcc491" opacity=".7"/><circle cx="1367" cy="875" r="2.2" fill="#dcc491" opacity=".7"/><circle cx="997" cy="868" r="1.6" fill="#dcc491" opacity=".7"/><circle cx="1008" cy="887" r="2.7" fill="#dcc491" opacity=".7"/><circle cx="1142" cy="813" r="1.8" fill="#dcc491" opacity=".7"/><circle cx="1201" cy="789" r="2.7" fill="#dcc491" opacity=".7"/><circle cx="1474" cy="799" r="2.1" fill="#dcc491" opacity=".7"/><circle cx="1436" cy="855" r="1.8" fill="#dcc491" opacity=".7"/><circle cx="210" cy="758" r="2.9" fill="#dcc491" opacity=".7"/><circle cx="1227" cy="757" r="2.7" fill="#dcc491" opacity=".7"/><circle cx="1487" cy="844" r="2.0" fill="#dcc491" opacity=".7"/><circle cx="841" cy="754" r="1.5" fill="#dcc491" opacity=".7"/><circle cx="1472" cy="842" r="2.3" fill="#dcc491" opacity=".7"/><circle cx="1417" cy="806" r="2.8" fill="#dcc491" opacity=".7"/><circle cx="1256" cy="768" r="1.9" fill="#dcc491" opacity=".7"/><circle cx="458" cy="773" r="2.4" fill="#dcc491" opacity=".7"/><circle cx="408" cy="803" r="1.7" fill="#dcc491" opacity=".7"/><circle cx="1381" cy="792" r="2.2" fill="#dcc491" opacity=".7"/><circle cx="893" cy="886" r="2.1" fill="#dcc491" opacity=".7"/><circle cx="1393" cy="817" r="2.3" fill="#dcc491" opacity=".7"/><circle cx="803" cy="735" r="2.2" fill="#dcc491" opacity=".7"/><circle cx="294" cy="733" r="2.7" fill="#dcc491" opacity=".7"/><circle cx="278" cy="812" r="2.6" fill="#dcc491" opacity=".7"/><circle cx="852" cy="787" r="2.3" fill="#dcc491" opacity=".7"/><circle cx="851" cy="865" r="1.7" fill="#dcc491" opacity=".7"/><circle cx="858" cy="774" r="1.9" fill="#dcc491" opacity=".7"/><rect x="0" y="120" width="1536" height="34" rx="17" fill="#79ab60"/><rect width="1536" height="1152" fill="none"/></svg>